<svg height="512pt" viewBox="-11 0 511 512" width="512pt" xmlns="http://www.w3.org/2000/svg"><path d="m489.542969 267.476562c0 135.046876-109.476563 244.523438-244.519531 244.523438-135.046876 0-244.523438-109.476562-244.523438-244.523438 0-135.042968 109.476562-244.519531 244.523438-244.519531 135.042968 0 244.519531 109.476563 244.519531 244.519531zm0 0" fill="#383c6b"/><path d="m211.515625 248.699219c-14.832031 25.691406-36.972656 46.390625-63.601563 59.464843-30.292968 14.871094-54.664062 39.554688-69.152343 70.03125l-21.710938 45.667969c34.667969 41.625 82.898438 71.554688 137.914063 83l30.355468-44.050781c19.152344-27.789062 28.339844-61.234375 26.070313-94.902344-1.992187-29.601562 4.863281-59.125 19.699219-84.816406l60.347656-104.527344-59.574219-34.394531zm0 0" fill="#2bb381"/><path d="m211.515625 248.699219c-14.832031 25.691406-36.972656 46.390625-63.601563 59.464843-30.292968 14.871094-54.664062 39.554688-69.152343 70.03125l-21.710938 45.667969c34.667969 41.625 82.898438 71.554688 137.914063 83l30.359375-44.050781c19.148437-27.789062 28.335937-61.234375 26.070312-94.902344-1.996093-29.601562 4.863281-59.125 19.695313-84.816406l60.347656-104.527344-59.570312-34.394531zm0 0" fill="#60d882"/><path d="m108.367188 407.894531 4.957031-10.738281c14.488281-31.382812 38.859375-56.796875 69.152343-72.109375 26.632813-13.464844 48.769532-34.777344 63.605469-61.234375l56.980469-101.628906-31.195312-18.011719-60.351563 104.527344c-14.832031 25.691406-36.972656 46.390625-63.601563 59.464843-30.292968 14.871094-54.664062 39.554688-69.152343 70.03125l-21.710938 45.667969c13.402344 16.09375 28.84375 30.429688 45.910157 42.632813-4.90625-19.304688-3.175782-40.011719 5.40625-58.601563zm0 0" fill="#37c47a"/><path d="m251.394531 367.910156c-1.996093-29.601562 4.863281-59.125 19.695313-84.816406l60.347656-104.527344-59.570312-34.394531-60.351563 104.527344c-14.832031 25.691406-36.972656 46.390625-63.601563 59.464843-17.515624 8.597657-33.042968 20.480469-45.832031 34.863282 14.871094 23.324218 35.414063 43.515625 61.027344 58.304687 25.617187 14.789063 53.375 22.480469 81.007813 23.699219 6.0625-18.265625 8.585937-37.65625 7.277343-57.121094zm0 0" fill="#2bb381"/><path d="m102.082031 343.027344c7 10.976562 15.269531 21.246094 24.71875 30.601562 14.300781-20.566406 33.382813-37.3125 55.675781-48.582031 26.632813-13.464844 48.769532-34.777344 63.605469-61.234375l56.980469-101.628906-31.195312-18.011719-60.351563 104.527344c-15.316406 26.53125-37.859375 46.828125-63.601563 59.464843-16.828124 8.261719-32.554687 19.933594-45.832031 34.863282zm0 0" fill="#28a572"/><path d="m339.699219 59.53125-9.566407 16.570312c-4.941406 8.558594-1.984374 19.605469 6.578126 24.546876 8.558593 4.941406 19.601562 1.980468 24.546874-6.578126l9.5625-16.570312zm0 0" fill="#81c5e9"/><path d="m331.4375 178.566406-59.570312-34.394531-59 102.191406c-1.320313 2.285157-2.71875 4.519531-4.152344 6.722657 3.578125 11.894531 11.519531 22.5 23.125 29.203124 11.605468 6.699219 24.761718 8.273438 36.851562 5.425782 1.195313-2.34375 2.429688-4.667969 3.75-6.957032zm0 0" fill="#ffac00"/><path d="m208.769531 253.257812c3.605469 11.824219 11.519531 22.363282 23.070313 29.03125.476562.277344.964844.53125 1.445312.789063 12.296875-15.808594 12.894532-20.5 69.777344-120.894531l-31.195312-18.011719c-63.179688 109.355469-60.359376 104.714844-63.097657 109.085937zm0 0" fill="#ff8500"/><path d="m197.988281 380.53125c-5.121093-14.082031-19.550781-22.410156-34.300781-19.804688-4.351562.769532-8.5-2.132812-9.269531-6.484374-.765625-4.347657 2.136719-8.496094 6.484375-9.265626 22.414062-3.953124 44.335937 8.695313 52.117187 30.085938 1.507813 4.152344-.632812 8.742188-4.78125 10.25-4.144531 1.507812-8.738281-.621094-10.25-4.78125zm0 0" fill="#28a572"/><g fill="#ffcd38"><path d="m414.722656 190.695312c-4.210937 0-7.738281-3.292968-7.976562-7.550781-.25-4.410156 3.125-8.183593 7.535156-8.433593l18.207031-1.023438c4.410157-.234375 8.1875 3.128906 8.433594 7.539062.246094 4.410157-3.128906 8.183594-7.539063 8.433594l-18.203124 1.019532c-.152344.007812-.304688.015624-.457032.015624zm0 0"/><path d="m219.503906 77.710938-8.21875-16.28125c-1.988281-3.941407-.40625-8.75 3.535156-10.742188 3.941407-1.988281 8.753907-.410156 10.746094 3.535156l8.214844 16.277344c1.992188 3.941406.410156 8.753906-3.535156 10.742188-3.941406 1.992187-8.75.410156-10.742188-3.53125zm0 0"/><path d="m277.566406 101.265625c-4.417968 0-7.996094-3.582031-7.996094-8v-85.269531c0-4.414063 3.578126-7.996094 7.996094-7.996094 4.417969 0 7.996094 3.578125 7.996094 7.996094v85.269531c.003906 4.417969-3.578125 8-7.996094 8zm0 0"/><path d="m366.691406 152.71875c-2.210937-3.824219-.898437-8.714844 2.925782-10.921875l73.847656-42.636719c3.824218-2.207031 8.714844-.898437 10.925781 2.925782 2.207031 3.824218.894531 8.71875-2.929687 10.925781l-73.84375 42.636719c-3.808594 2.195312-8.707032.914062-10.925782-2.929688zm0 0"/></g><path d="m411.117188 43.324219-61.964844-35.777344c-5.242188-3.027344-12.007813-1.210937-15.035156 4.03125l-15.136719 26.214844c-3.027344 5.242187-1.214844 12.007812 4.027343 15.035156l61.964844 35.777344c5.242188 3.027343 12.007813 1.210937 15.035156-4.03125l15.136719-26.214844c3.027344-5.246094 1.214844-12.011719-4.027343-15.035156zm0 0" fill="#cce6ed"/><path d="m358.949219 43.390625c5.75-9.957031 16.628906-15.207031 27.425781-14.351563l-37.222656-21.492187c-5.242188-3.027344-12.007813-1.210937-15.035156 4.03125l-15.136719 26.214844c-3.027344 5.242187-1.214844 12.007812 4.027343 15.035156l37.222657 21.492187c-6.132813-8.921874-7.03125-20.96875-1.28125-30.929687zm0 0" fill="#a6d6eb"/><path d="m271.867188 144.171875-38.714844 67.050781c-1.347656 14.273438 5.507812 28.699219 18.738281 36.335938 13.230469 7.636718 29.148437 6.367187 40.835937-1.941406l38.710938-67.050782zm0 0" fill="#ffcd38"/><path d="m254.441406 248.902344 48.621094-86.71875-31.195312-18.011719-38.710938 67.050781c-1.457031 15.390625 6.605469 30.621094 21.285156 37.679688zm0 0" fill="#ffac00"/><path d="m330.574219 180.53125-59.773438-34.511719c-6.886719-3.976562-9.246093-12.78125-5.269531-19.664062 3.972656-6.886719 12.777344-9.246094 19.664062-5.269531l59.773438 34.511718c6.886719 3.972656 9.246094 12.777344 5.269531 19.664063-3.972656 6.886719-12.777343 9.246093-19.664062 5.269531zm0 0" fill="#fcd981"/><path d="m301.71875 147.246094c3.304688-5.722656 9.738281-8.496094 15.894531-7.445313l-32.417969-18.714843c-6.886718-3.976563-15.6875-1.617188-19.664062 5.269531-3.976562 6.882812-1.617188 15.6875 5.269531 19.664062l32.417969 18.714844c-3.992188-4.804687-4.804688-11.761719-1.5-17.488281zm0 0" fill="#ffcd38"/><path d="m184.464844 360.953125c0-5.179687 4.027344-9.40625 9.121094-9.746094-9.476563-5.835937-21.011719-8.289062-32.683594-6.230469-4.347656.769532-7.25 4.917969-6.484375 9.265626.769531 4.351562 4.917969 7.253906 9.269531 6.484374 7.722656-1.363281 15.351562.273438 21.605469 4.160157-.527344-1.207031-.828125-2.535157-.828125-3.933594zm0 0" fill="#239b6a"/></svg>